<svg width="59" height="59" viewBox="0 0 59 59" fill="none" xmlns="http://www.w3.org/2000/svg">
<path d="M51.625 14.75V24.3375C47.8076 22.3874 43.4706 21.697 39.2364 22.3653C35.0022 23.0337 31.0886 25.0265 28.0576 28.0576C25.0265 31.0886 23.0337 35.0022 22.3653 39.2364C21.697 43.4706 22.3874 47.8076 24.3375 51.625H9.21875C6.77379 51.625 4.42896 50.6537 2.70011 48.9249C0.971258 47.196 0 44.8512 0 42.4062V14.75H51.625ZM42.4062 0C44.8512 0 47.196 0.971258 48.9249 2.70011C50.6537 4.42896 51.625 6.77379 51.625 9.21875V11.0625H0V9.21875C0 6.77379 0.971258 4.42896 2.70011 2.70011C4.42896 0.971258 6.77379 0 9.21875 0H42.4062ZM59 42.4062C59 46.8072 57.2517 51.0279 54.1398 54.1398C51.0279 57.2517 46.8072 59 42.4062 59C38.0053 59 33.7846 57.2517 30.6727 54.1398C27.5608 51.0279 25.8125 46.8072 25.8125 42.4062C25.8125 38.0053 27.5608 33.7846 30.6727 30.6727C33.7846 27.5608 38.0053 25.8125 42.4062 25.8125C46.8072 25.8125 51.0279 27.5608 54.1398 30.6727C57.2517 33.7846 59 38.0053 59 42.4062V42.4062ZM51.0866 35.5696C50.9154 35.3979 50.7119 35.2617 50.4879 35.1687C50.2639 35.0758 50.0238 35.028 49.7812 35.028C49.5387 35.028 49.2986 35.0758 49.0746 35.1687C48.8506 35.2617 48.6471 35.3979 48.4759 35.5696L38.7188 45.3304L36.3366 42.9446C35.9904 42.5984 35.5209 42.4039 35.0312 42.4039C34.5416 42.4039 34.0721 42.5984 33.7259 42.9446C33.3797 43.2908 33.1852 43.7604 33.1852 44.25C33.1852 44.7396 33.3797 45.2092 33.7259 45.5554L37.4134 49.2429C37.5846 49.4146 37.7881 49.5508 38.0121 49.6438C38.2361 49.7367 38.4762 49.7845 38.7188 49.7845C38.9613 49.7845 39.2014 49.7367 39.4254 49.6438C39.6494 49.5508 39.8529 49.4146 40.0241 49.2429L51.0866 38.1804C51.2583 38.0091 51.3946 37.8056 51.4875 37.5816C51.5805 37.3576 51.6283 37.1175 51.6283 36.875C51.6283 36.6325 51.5805 36.3924 51.4875 36.1684C51.3946 35.9444 51.2583 35.7409 51.0866 35.5696V35.5696Z" fill="black"/>
</svg>
